<svg width="45" height="45" viewBox="0 0 45 45" fill="none" xmlns="http://www.w3.org/2000/svg">
<path d="M13.7918 6.28421C15.3262 5.12212 17.1994 4.49534 19.1243 4.49996C19.6643 4.49996 20.094 4.78121 20.3438 4.97471C20.6228 5.19521 20.8838 5.47646 21.1178 5.75771C21.2837 5.95923 21.3744 6.21218 21.3743 6.47321V14.625H18.933C18.6676 13.8743 18.1454 13.2417 17.4587 12.8389C16.772 12.436 15.965 12.2889 15.1803 12.4236C14.3956 12.5582 13.6838 12.9659 13.1706 13.5746C12.6575 14.1833 12.376 14.9538 12.376 15.75C12.376 16.5461 12.6575 17.3166 13.1706 17.9253C13.6838 18.534 14.3956 18.9417 15.1803 19.0764C15.965 19.211 16.772 19.0639 17.4587 18.661C18.1454 18.2582 18.6676 17.6256 18.933 16.875H21.3743V38.0587C21.3744 38.2253 21.3375 38.3898 21.2663 38.5404C21.1951 38.691 21.0913 38.8239 20.9625 38.9295C19.923 39.78 18.5325 40.5 16.8743 40.5C14.2058 40.5 12.219 39.1545 10.9343 37.5457C10.0112 36.3995 9.37901 35.0471 9.09152 33.6037C8.21735 33.3706 7.40683 32.9438 6.72002 32.355C5.47802 31.2907 4.49927 29.565 4.49927 27C4.49927 25.7467 4.58252 24.615 4.76927 23.625H11.8118C13.2428 23.625 14.4218 24.6937 14.6018 26.0752C13.8535 26.346 13.225 26.8725 12.8272 27.5616C12.4294 28.2508 12.288 29.0584 12.4278 29.8417C12.5676 30.6251 12.9797 31.3339 13.5913 31.8429C14.2029 32.3519 14.9747 32.6285 15.7704 32.6237C16.5662 32.619 17.3346 32.3332 17.9401 31.8169C18.5456 31.3006 18.9492 30.587 19.0796 29.802C19.2101 29.017 19.0589 28.2112 18.6529 27.5268C18.2469 26.8425 17.6122 26.3235 16.8608 26.0617C16.7659 24.7875 16.1928 23.5964 15.2564 22.7271C14.3199 21.8579 13.0895 21.3748 11.8118 21.375H5.49152C5.83577 20.7045 6.29702 20.1375 6.89777 19.7347C7.04973 19.6341 7.2092 19.5454 7.37477 19.4692C6.73577 17.5972 6.90227 15.4057 7.51877 13.6845C7.91252 12.5775 8.53802 11.5312 9.39752 10.8337C9.96452 10.3725 10.6395 10.0687 11.3775 10.0102C11.7015 8.47346 12.6128 7.20221 13.794 6.28421H13.7918ZM23.6243 32.625H25.3118C26.6544 32.625 27.9421 32.0916 28.8915 31.1422C29.8409 30.1928 30.3743 28.9051 30.3743 27.5625V23.4337C31.1249 23.1683 31.7575 22.6461 32.1603 21.9594C32.5632 21.2727 32.7103 20.4657 32.5757 19.681C32.441 18.8963 32.0333 18.1845 31.4246 17.6713C30.8159 17.1582 30.0454 16.8767 29.2493 16.8767C28.4531 16.8767 27.6826 17.1582 27.0739 17.6713C26.4652 18.1845 26.0575 18.8963 25.9229 19.681C25.7882 20.4657 25.9353 21.2727 26.3382 21.9594C26.741 22.6461 27.3736 23.1683 28.1243 23.4337V27.5625C28.1243 29.115 26.8643 30.375 25.3118 30.375H23.6243V6.47321C23.6242 6.21218 23.7148 5.95923 23.8808 5.75771C24.1125 5.47646 24.3758 5.19521 24.6548 4.97471C24.9023 4.78121 25.332 4.49996 25.8743 4.49996C27.7991 4.49534 29.6723 5.12212 31.2068 6.28421C32.388 7.20221 33.2993 8.47346 33.621 10.0102C34.359 10.0665 35.034 10.3725 35.601 10.8337C36.4605 11.5312 37.086 12.5775 37.4798 13.6845C38.0963 15.4057 38.2628 17.5995 37.6238 19.467C37.7858 19.5435 37.9455 19.6335 38.1008 19.737C38.7195 20.1487 39.1898 20.7382 39.5363 21.4335C40.218 22.7947 40.4993 24.6937 40.4993 27C40.4993 29.5672 39.5205 31.2907 38.2785 32.355C37.5917 32.9438 36.7812 33.3706 35.907 33.6037C35.682 34.8592 35.052 36.3127 34.0643 37.5457C32.7818 39.1545 30.7928 40.5 28.1243 40.5C26.4683 40.5 25.0755 39.78 24.0383 38.9295C23.909 38.8241 23.8049 38.6913 23.7333 38.5407C23.6617 38.3901 23.6244 38.2255 23.6243 38.0587V32.625ZM15.7493 14.625C15.4509 14.625 15.1648 14.7435 14.9538 14.9545C14.7428 15.1654 14.6243 15.4516 14.6243 15.75C14.6243 16.0483 14.7428 16.3345 14.9538 16.5455C15.1648 16.7564 15.4509 16.875 15.7493 16.875C16.0476 16.875 16.3338 16.7564 16.5448 16.5455C16.7557 16.3345 16.8743 16.0483 16.8743 15.75C16.8743 15.4516 16.7557 15.1654 16.5448 14.9545C16.3338 14.7435 16.0476 14.625 15.7493 14.625ZM15.7493 28.125C15.4509 28.125 15.1648 28.2435 14.9538 28.4545C14.7428 28.6654 14.6243 28.9516 14.6243 29.25C14.6243 29.5483 14.7428 29.8345 14.9538 30.0455C15.1648 30.2564 15.4509 30.375 15.7493 30.375C16.0476 30.375 16.3338 30.2564 16.5448 30.0455C16.7557 29.8345 16.8743 29.5483 16.8743 29.25C16.8743 28.9516 16.7557 28.6654 16.5448 28.4545C16.3338 28.2435 16.0476 28.125 15.7493 28.125ZM29.2493 21.375C29.5476 21.375 29.8338 21.2564 30.0448 21.0455C30.2557 20.8345 30.3743 20.5483 30.3743 20.25C30.3743 19.9516 30.2557 19.6654 30.0448 19.4545C29.8338 19.2435 29.5476 19.125 29.2493 19.125C28.9509 19.125 28.6647 19.2435 28.4538 19.4545C28.2428 19.6654 28.1243 19.9516 28.1243 20.25C28.1243 20.5483 28.2428 20.8345 28.4538 21.0455C28.6647 21.2564 28.9509 21.375 29.2493 21.375Z" fill="#185CFF"/>
</svg>
