<svg width="45" height="45" viewBox="0 0 45 45" fill="none" xmlns="http://www.w3.org/2000/svg">
<path d="M6.74934 5.60028C6.74605 5.30191 6.62438 5.01707 6.41108 4.80841C6.19778 4.59975 5.91033 4.48437 5.61196 4.48766C5.31359 4.49094 5.02875 4.61261 4.82009 4.82591C4.61143 5.03921 4.49605 5.32666 4.49934 5.62503V39.375C4.49934 39.6734 4.61786 39.9595 4.82884 40.1705C5.03982 40.3815 5.32597 40.5 5.62434 40.5H39.3743C39.6727 40.5 39.9589 40.3815 40.1698 40.1705C40.3808 39.9595 40.4993 39.6734 40.4993 39.375C40.4993 39.0767 40.3808 38.7905 40.1698 38.5795C39.9589 38.3686 39.6727 38.25 39.3743 38.25H6.74934V5.60028ZM35.9993 36V12.375C35.999 12.1633 35.939 11.956 35.8262 11.7769C35.7133 11.5978 35.5522 11.4542 35.3614 11.3625C35.1706 11.2709 34.9578 11.2349 34.7474 11.2588C34.5371 11.2827 34.3378 11.3654 34.1723 11.4975L23.5186 20.0183L16.3073 15.8985C16.1544 15.8113 15.9831 15.7611 15.8072 15.7521C15.6314 15.7431 15.4559 15.7756 15.2948 15.8468L8.99934 18.6435V36H35.9993Z" fill="#185CFF"/>
</svg>
