<svg width="45" height="45" viewBox="0 0 45 45" fill="none" xmlns="http://www.w3.org/2000/svg">
<path d="M21.0938 32.3438V33.75C21.0938 34.123 20.9456 34.4806 20.6819 34.7444C20.4181 35.0081 20.0605 35.1562 19.6875 35.1562H16.875V36.5625C16.875 37.3084 16.5787 38.0238 16.0512 38.5512C15.5238 39.0787 14.8084 39.375 14.0625 39.375H8.4375C7.69158 39.375 6.97621 39.0787 6.44876 38.5512C5.92132 38.0238 5.625 37.3084 5.625 36.5625V32.9259C5.62516 32.1801 5.92158 31.4648 6.44906 30.9375L17.3334 20.0531C16.666 17.7869 16.729 15.3681 17.5134 13.1397C18.2978 10.9113 19.7638 8.98635 21.7036 7.63784C23.6433 6.28933 25.9584 5.58569 28.3204 5.6267C30.6825 5.6677 32.9718 6.45126 34.8635 7.86627C36.7553 9.28129 38.1536 11.2559 38.8602 13.5102C39.5668 15.7645 39.5458 18.1841 38.8002 20.4257C38.0545 22.6674 36.6221 24.6175 34.706 25.9994C32.7899 27.3814 30.4874 28.125 28.125 28.125H25.3097V30.9375C25.3097 31.3105 25.1615 31.6681 24.8978 31.9319C24.6341 32.1956 24.2764 32.3438 23.9034 32.3438H21.0909H21.0938ZM30.9375 16.875C31.6834 16.875 32.3988 16.5787 32.9262 16.0512C33.4537 15.5238 33.75 14.8084 33.75 14.0625C33.75 13.3166 33.4537 12.6012 32.9262 12.0738C32.3988 11.5463 31.6834 11.25 30.9375 11.25C30.1916 11.25 29.4762 11.5463 28.9488 12.0738C28.4213 12.6012 28.125 13.3166 28.125 14.0625C28.125 14.8084 28.4213 15.5238 28.9488 16.0512C29.4762 16.5787 30.1916 16.875 30.9375 16.875Z" fill="#185CFF"/>
</svg>
