<svg width="24" height="28" viewBox="0 0 24 28" fill="none" xmlns="http://www.w3.org/2000/svg">
<path d="M14.1675 26.27C17.4356 23.3938 23.25 17.5175 23.25 12.125C23.25 9.14132 22.0647 6.27983 19.955 4.17005C17.8452 2.06026 14.9837 0.875 12 0.875C9.01631 0.875 6.15483 2.06026 4.04505 4.17005C1.93526 6.27983 0.75 9.14132 0.75 12.125C0.75 17.5175 6.5625 23.3938 9.8325 26.27C10.429 26.8024 11.2005 27.0966 12 27.0966C12.7995 27.0966 13.571 26.8024 14.1675 26.27ZM8.25 12.125C8.25 11.1304 8.64509 10.1766 9.34835 9.47335C10.0516 8.77009 11.0054 8.375 12 8.375C12.9946 8.375 13.9484 8.77009 14.6516 9.47335C15.3549 10.1766 15.75 11.1304 15.75 12.125C15.75 13.1196 15.3549 14.0734 14.6516 14.7767C13.9484 15.4799 12.9946 15.875 12 15.875C11.0054 15.875 10.0516 15.4799 9.34835 14.7767C8.64509 14.0734 8.25 13.1196 8.25 12.125Z" fill="#185CFF"/>
</svg>
