<svg width="45" height="45" viewBox="0 0 45 45" fill="none" xmlns="http://www.w3.org/2000/svg">
<path d="M31.4989 6.1875C31.4989 5.73995 31.6767 5.31072 31.9931 4.99426C32.3096 4.67779 32.7388 4.5 33.1864 4.5H38.8114C39.2589 4.5 39.6882 4.67779 40.0046 4.99426C40.3211 5.31072 40.4989 5.73995 40.4989 6.1875V11.8125C40.4989 12.2601 40.3211 12.6893 40.0046 13.0057C39.6882 13.3222 39.2589 13.5 38.8114 13.5C38.3638 13.5 37.9346 13.3222 37.6181 13.0057C37.3017 12.6893 37.1239 12.2601 37.1239 11.8125V10.26L27.0664 20.3175C26.75 20.6335 26.3211 20.811 25.8739 20.811C25.4267 20.811 24.9978 20.6335 24.6814 20.3175L19.1239 14.76L9.62888 24.255C9.47439 24.4208 9.28809 24.5538 9.08109 24.646C8.87409 24.7382 8.65064 24.7878 8.42406 24.7918C8.19748 24.7958 7.97241 24.7541 7.76229 24.6693C7.55216 24.5844 7.36129 24.4581 7.20104 24.2978C7.0408 24.1376 6.91448 23.9467 6.8296 23.7366C6.74473 23.5265 6.70305 23.3014 6.70705 23.0748C6.71105 22.8482 6.76064 22.6248 6.85287 22.4178C6.94511 22.2108 7.07809 22.0245 7.24388 21.87L17.9314 11.1825C18.2478 10.8665 18.6767 10.689 19.1239 10.689C19.5711 10.689 20 10.8665 20.3164 11.1825L25.8739 16.74L34.7389 7.875H33.1864C32.7388 7.875 32.3096 7.69721 31.9931 7.38074C31.6767 7.06428 31.4989 6.63505 31.4989 6.1875ZM8.43638 31.5C8.88393 31.5 9.31316 31.6778 9.62962 31.9943C9.94609 32.3107 10.1239 32.7399 10.1239 33.1875V38.8125C10.1239 39.2601 9.94609 39.6893 9.62962 40.0057C9.31316 40.3222 8.88393 40.5 8.43638 40.5C7.98883 40.5 7.55961 40.3222 7.24314 40.0057C6.92667 39.6893 6.74888 39.2601 6.74888 38.8125V33.1875C6.74888 32.7399 6.92667 32.3107 7.24314 31.9943C7.55961 31.6778 7.98883 31.5 8.43638 31.5ZM19.1239 26.4375C19.1239 25.9899 18.9461 25.5607 18.6296 25.2443C18.3132 24.9278 17.8839 24.75 17.4364 24.75C16.9888 24.75 16.5596 24.9278 16.2431 25.2443C15.9267 25.5607 15.7489 25.9899 15.7489 26.4375V38.8125C15.7489 39.2601 15.9267 39.6893 16.2431 40.0057C16.5596 40.3222 16.9888 40.5 17.4364 40.5C17.8839 40.5 18.3132 40.3222 18.6296 40.0057C18.9461 39.6893 19.1239 39.2601 19.1239 38.8125V26.4375ZM26.4364 29.25C26.8839 29.25 27.3132 29.4278 27.6296 29.7443C27.9461 30.0607 28.1239 30.4899 28.1239 30.9375V38.8125C28.1239 39.2601 27.9461 39.6893 27.6296 40.0057C27.3132 40.3222 26.8839 40.5 26.4364 40.5C25.9888 40.5 25.5596 40.3222 25.2431 40.0057C24.9267 39.6893 24.7489 39.2601 24.7489 38.8125V30.9375C24.7489 30.4899 24.9267 30.0607 25.2431 29.7443C25.5596 29.4278 25.9888 29.25 26.4364 29.25ZM37.1239 21.9375C37.1239 21.4899 36.9461 21.0607 36.6296 20.7443C36.3132 20.4278 35.8839 20.25 35.4364 20.25C34.9888 20.25 34.5596 20.4278 34.2431 20.7443C33.9267 21.0607 33.7489 21.4899 33.7489 21.9375V38.8125C33.7489 39.2601 33.9267 39.6893 34.2431 40.0057C34.5596 40.3222 34.9888 40.5 35.4364 40.5C35.8839 40.5 36.3132 40.3222 36.6296 40.0057C36.9461 39.6893 37.1239 39.2601 37.1239 38.8125V21.9375Z" fill="#185CFF"/>
</svg>
