<svg width="currentwidth" height="currentheight" viewBox="0 0 22 13" fill="none" xmlns="http://www.w3.org/2000/svg">
<path d="M21.5 6.375C21.5003 6.20582 21.4631 6.03867 21.391 5.88563C21.3189 5.73259 21.2137 5.59746 21.083 5.49L16.664 1.08C16.4531 0.869324 16.1671 0.750989 15.869 0.750989C15.5709 0.750989 15.2849 0.869324 15.074 1.08C14.9698 1.18419 14.8871 1.3079 14.8307 1.44405C14.7743 1.5802 14.7452 1.72613 14.7452 1.8735C14.7452 2.02087 14.7743 2.1668 14.8307 2.30295C14.8871 2.4391 14.9698 2.56281 15.074 2.667L17.651 5.25L1.625 5.25C1.32663 5.25 1.04048 5.36853 0.829504 5.57951C0.618526 5.79048 0.5 6.07663 0.5 6.375C0.5 6.67337 0.618526 6.95952 0.829505 7.1705C1.04048 7.38147 1.32663 7.5 1.625 7.5L17.666 7.5L15.0665 10.083C14.9621 10.1872 14.8792 10.311 14.8226 10.4473C14.7661 10.5836 14.737 10.7297 14.737 10.8772C14.737 11.0248 14.7661 11.1709 14.8226 11.3072C14.8792 11.4435 14.9621 11.5673 15.0665 11.6715C15.171 11.776 15.295 11.859 15.4316 11.9156C15.5681 11.9721 15.7145 12.0013 15.8622 12.0013C16.01 12.0013 16.1564 11.9721 16.2929 11.9156C16.4295 11.859 16.5535 11.776 16.658 11.6715L21.17 7.1655C21.2753 7.06268 21.3588 6.93968 21.4155 6.80386C21.4722 6.66804 21.5009 6.52218 21.5 6.375Z" fill="currentcolor"/>
</svg>
