<svg width="currentwidth" height="currentheight" viewBox="0 0 22 13" fill="none" xmlns="http://www.w3.org/2000/svg">
<path d="M0.5 6.375C0.499678 6.20582 0.536915 6.03867 0.609028 5.88563C0.681141 5.73259 0.786328 5.59746 0.917 5.49L5.336 1.08C5.54694 0.869323 5.83287 0.750988 6.131 0.750988C6.42913 0.750988 6.71506 0.869323 6.926 1.08C7.03023 1.18419 7.1129 1.3079 7.16931 1.44405C7.22572 1.5802 7.25475 1.72613 7.25475 1.8735C7.25475 2.02087 7.22572 2.1668 7.16931 2.30295C7.1129 2.4391 7.03023 2.56281 6.926 2.667L4.349 5.25L20.375 5.25C20.6734 5.25 20.9595 5.36853 21.1705 5.5795C21.3815 5.79048 21.5 6.07663 21.5 6.375C21.5 6.67337 21.3815 6.95952 21.1705 7.17049C20.9595 7.38147 20.6734 7.5 20.375 7.5L4.334 7.5L6.9335 10.083C7.03795 10.1872 7.12082 10.311 7.17736 10.4473C7.2339 10.5836 7.263 10.7297 7.263 10.8772C7.263 11.0248 7.2339 11.1709 7.17736 11.3072C7.12082 11.4435 7.03795 11.5673 6.9335 11.6715C6.82902 11.776 6.70497 11.859 6.56844 11.9156C6.4319 11.9721 6.28555 12.0013 6.13775 12.0013C5.98995 12.0013 5.8436 11.9721 5.70706 11.9156C5.57053 11.859 5.44647 11.776 5.342 11.6715L0.829998 7.1655C0.72469 7.06268 0.641192 6.93968 0.584492 6.80386C0.527792 6.66804 0.499056 6.52218 0.5 6.375Z" fill="currentcolor"/>
</svg>
